{"title":"Kung.Fu.Panda.Secrets.of.the.Scroll.2016.SHORT.WEBRip.480p.x264.","uid":13977595,"size":94673736,"categoryP":"video","categoryS":"movie_clips","magnet":"?xt=urn:btih:48999163077287f186796b0f0058c14cc7fbafcb&amp;dn=Kung.Fu.Panda.Secrets.of.the.Scroll.2016.SHORT.WEBRip.480p.x264.&amp;tr=udp%3A%2F%2Ftracker.leechers-paradise.org%3A6969&amp;tr=udp%3A%2F%2Fzer0day.ch%3A1337&amp;tr=udp%3A%2F%2Fopen.demonii.com%3A1337&amp;tr=udp%3A%2F%2Ftracker.coppersurfer.tk%3A6969&amp;tr=udp%3A%2F%2Fexodus.desync.com%3A6969","seeders":3,"leechers":2,"uploader":"VYTOP2PDL","files":6,"time":1458660876,"description":"____    ____ ____    ____ .___________.  ______   \r\n     /   /      /   / |           | /  __    \r\n    /   /      /   /  `---|  |----`|  |  |  | \r\n        /     _    _/       |  |     |  |  |  | \r\n       /        |  |         |  |     |  `--'  | \r\n    __/         |__|         |__|      ______/  \r\n                                                  \r\nPresenting Small Encodes with quality for years!\r\n                                                                                                   \r\n                                                                                                   \r\n\r\n\r\nKung.Fu.Panda.Secrets.of.the.Scroll.2016.SHORT.WEBRip.480p.x264.AAC-VYTO\r\n\r\n\r\nGenre: Short, Action, Adventure \nhttp://www.imdb.com/title/tt5513770/\r\n\r\n\r\nFormat                                   : MPEG-4\r\nFile size                                : 85.3 MiB\r\nDuration                                 : 23mn 27s\r\nOverall bit rate                         : 508 Kbps\r\n\r\nVideo\r\nFormat                                   : AVC\r\nBit rate                                 : 473 Kbps\r\nWidth                                    : 720 pixels\r\nHeight                                   : 400 pixels\r\nDisplay aspect ratio                     : 16:9\r\nFrame rate mode                          : Constant\r\nFrame rate                               : 23.976 (24000/1001) fps\r\nBit depth                                : 8 bits\r\nStream size                              : 79.4 MiB (93%)\r\nWriting library                          : x264\r\n\r\nAudio\r\nFormat                                   : AAC\r\nBit rate mode                            : Variable\r\nBit rate                                 : 31.9 Kbps\r\nChannel(s)                               : 2 channels\r\nChannel positions                        : Front: L R\r\nSampling rate                            : 48.0 KHz\r\nFrame rate                               : 23.438 fps \r\nStream size                              : 5.31 MiB (6%)\r\nLanguage                                 : English\r\n\r\nSubtitle                                 : Yes (English)\r\n\r\nScreen Shot: (Click to view)\r\n \nhttp://ititli.com/XoZ \nhttp://ititli.com/Xoc \nhttp://ititli.com/Xoi \nhttp://ititli.com/Xop \nhttp://ititli.com/XoD \nhttp://ititli.com/Xoa \nhttp://ititli.com/Xob \nhttp://ititli.com/Xoz \nhttp://ititli.com/XoI \nhttp://ititli.com/XoO \nhttp://ititli.com/XG9 \nhttp://ititli.com/XGX\r\n\r\n----------------------------------------------------------------------------------------------------\r\n\r\n\r\nEncoder Notes: Looking For Early Access To Anything You Can Provide WEBDL, DVDScr, DVDR, BluRay,\r\nDirect Audio, Music Releases and Seedboxes. If You Got anything to offer please contact us.\r\n\r\nSupport us by donating BC - 1FgwdzPsd1y25Gea8wP1qni35uGCtmkRCD\r\n\r\n\r\nFind us and join us!","torrent":{"xt":"urn:btih:48999163077287f186796b0f0058c14cc7fbafcb","amp;dn":"Kung.Fu.Panda.Secrets.of.the.Scroll.2016.SHORT.WEBRip.480p.x264.","amp;tr":["udp%3A%2F%2Ftracker.leechers-paradise.org%3A6969","udp%3A%2F%2Fzer0day.ch%3A1337","udp%3A%2F%2Fopen.demonii.com%3A1337","udp%3A%2F%2Ftracker.coppersurfer.tk%3A6969","udp%3A%2F%2Fexodus.desync.com%3A6969"],"infoHash":"48999163077287f186796b0f0058c14cc7fbafcb","infoHashBuffer":{"type":"Buffer","data":[72,153,145,99,7,114,135,241,134,121,107,15,0,88,193,76,199,251,175,203]},"announce":[],"urlList":[]}}